<?xml version="1.0" standalone="no"?>
<!DOCTYPE svg PUBLIC "-//W3C//DTD SVG 20010904//EN"
 "http://www.w3.org/TR/2001/REC-SVG-20010904/DTD/svg10.dtd">
<svg version="1.0" xmlns="http://www.w3.org/2000/svg"
 width="500.000000pt" height="169.000000pt" viewBox="0 0 500.000000 169.000000"
 preserveAspectRatio="xMidYMid meet">

<g transform="translate(0.000000,169.000000) scale(0.100000,-0.100000)"
fill="#000000" stroke="none">
<path d="M148 963 c21 -15 22 -22 22 -143 0 -122 -1 -127 -22 -138 -18 -8 8
-11 113 -11 l137 -1 6 31 c11 59 7 65 -21 31 -28 -33 -90 -56 -119 -45 -19 7
-20 133 -1 133 19 0 33 -13 50 -45 16 -30 16 -29 17 50 l0 80 -20 -32 c-12
-20 -28 -33 -40 -33 -18 0 -20 7 -20 60 l0 60 36 0 c45 0 70 -13 88 -48 l15
-27 1 48 0 47 -132 -1 c-124 0 -131 -1 -110 -16z"/>
<path d="M490 972 c0 -5 7 -12 15 -16 12 -4 15 -29 15 -134 0 -124 -1 -129
-22 -140 -18 -8 -2 -11 77 -11 86 -1 106 3 139 22 97 55 102 201 9 258 -28 18
-56 23 -134 27 -64 3 -99 1 -99 -6z m172 -23 c59 -32 65 -218 8 -249 -10 -6
-30 -10 -44 -10 l-26 0 0 135 c0 130 1 135 21 135 11 0 29 -5 41 -11z"/>
<path d="M950 962 c-50 -26 -83 -92 -77 -155 10 -114 125 -179 229 -128 108
52 119 212 19 278 -43 29 -121 31 -171 5z m112 -3 c29 -16 48 -70 48 -140 0
-98 -36 -149 -96 -137 -68 13 -85 207 -23 269 22 22 41 24 71 8z"/>
<path d="M1349 843 c-29 -75 -62 -145 -73 -155 -19 -18 -19 -18 29 -18 44 0
47 1 30 14 -16 12 -18 19 -10 43 9 25 15 28 62 31 49 3 51 2 62 -29 14 -41 15
-38 -11 -49 -17 -6 -1 -9 57 -9 68 0 77 2 63 13 -9 7 -43 75 -76 151 -32 76
-63 140 -68 142 -6 2 -35 -58 -65 -134z m45 -61 c-20 -2 -38 -1 -41 2 -3 3 3
26 13 52 l18 48 23 -50 23 -49 -36 -3z"/>
<path d="M1650 972 c0 -5 9 -12 20 -15 19 -5 20 -14 20 -130 0 -119 -1 -127
-22 -141 -21 -15 -18 -16 57 -16 75 0 78 1 57 16 -18 12 -22 25 -22 70 0 30 4
54 9 54 6 0 29 -31 53 -70 l43 -70 47 0 48 0 -52 70 -51 71 32 27 c27 22 32
33 29 61 -5 58 -40 75 -163 79 -66 3 -105 1 -105 -6z m178 -24 c7 -7 12 -30
12 -53 0 -48 -13 -65 -52 -65 -27 0 -28 1 -28 58 0 32 3 62 7 65 11 11 48 8
61 -5z"/>
<path d="M2038 963 c21 -15 22 -22 22 -139 0 -116 -1 -124 -22 -138 -21 -15
-16 -16 72 -16 120 0 169 21 199 84 24 49 26 84 7 129 -30 71 -90 97 -226 96
-71 0 -74 -1 -52 -16z m171 -22 c45 -45 52 -168 14 -220 -15 -19 -29 -26 -54
-26 l-34 0 -3 119 c-1 66 0 126 2 133 8 20 53 16 75 -6z"/>
<path d="M2479 957 c-100 -66 -89 -226 19 -278 143 -69 284 79 210 220 -29 55
-74 81 -144 81 -36 0 -61 -6 -85 -23z m130 -6 c62 -62 45 -256 -23 -269 -60
-12 -96 39 -96 137 0 120 62 189 119 132z"/>
<path d="M2970 971 c0 -5 6 -11 13 -14 8 -3 42 -71 77 -151 34 -80 66 -144 70
-141 4 2 31 66 60 141 29 75 62 145 73 155 21 19 20 19 -32 19 -32 0 -50 -4
-46 -10 3 -5 13 -10 21 -10 8 0 14 -6 14 -12 0 -12 -58 -169 -65 -176 -3 -4
-75 167 -75 179 0 5 9 9 20 9 11 0 20 5 20 10 0 6 -32 10 -75 10 -41 0 -75 -4
-75 -9z"/>
<path d="M3350 971 c0 -5 9 -11 20 -14 19 -5 20 -14 20 -130 0 -119 -1 -127
-22 -141 -21 -15 -17 -16 62 -16 75 0 82 2 60 13 -24 12 -25 15 -28 141 -2
121 -2 128 18 133 44 12 16 23 -55 23 -41 0 -75 -4 -75 -9z"/>
<path d="M3662 960 c-68 -42 -93 -138 -55 -217 39 -84 160 -108 233 -46 41 34
38 50 -2 19 -46 -34 -80 -41 -116 -22 -36 19 -52 59 -52 133 0 109 48 162 116
130 19 -10 43 -31 52 -47 24 -42 32 -37 32 20 0 45 -13 67 -22 38 -3 -9 -12
-9 -38 0 -50 18 -111 14 -148 -8z"/>
<path d="M4080 955 c-43 -113 -104 -253 -117 -267 -15 -17 -13 -18 33 -18 41
1 46 2 29 12 -11 6 -21 12 -23 13 -1 1 3 16 9 34 11 31 13 32 62 29 47 -3 53
-6 62 -31 8 -24 6 -31 -10 -43 -17 -12 -10 -14 60 -14 71 0 77 2 60 14 -11 8
-47 77 -79 155 -33 78 -63 141 -68 141 -5 0 -13 -11 -18 -25z m24 -153 c7 -20
4 -22 -33 -22 l-40 0 14 41 c8 22 17 45 21 51 6 10 22 -19 38 -70z"/>
<path d="M4340 970 c0 -5 7 -10 15 -10 13 0 15 -21 15 -133 0 -129 -1 -134
-22 -145 -19 -9 -6 -11 62 -11 68 0 81 2 63 11 -20 10 -23 19 -23 70 0 32 2
58 5 58 3 0 26 -31 51 -70 l47 -70 51 0 c42 1 48 3 36 13 -9 7 -35 39 -58 72
-38 53 -41 61 -26 70 79 47 68 125 -21 145 -54 13 -195 13 -195 0z m174 -26
c9 -8 16 -31 16 -49 0 -40 -22 -65 -56 -65 -23 0 -24 3 -24 65 0 62 1 65 24
65 14 0 32 -7 40 -16z"/>
<path d="M4710 971 c0 -5 9 -11 20 -14 19 -5 20 -14 20 -135 0 -124 -1 -129
-22 -140 -19 -9 -6 -11 62 -11 61 0 79 3 63 9 -22 9 -23 14 -23 145 0 113 2
135 15 135 8 0 15 5 15 10 0 6 -32 10 -75 10 -41 0 -75 -4 -75 -9z"/>
</g>
</svg>
